<svg width="33" height="33" viewBox="0 0 33 33" fill="none" xmlns="http://www.w3.org/2000/svg">
<path d="M13.25 6.75H19.75V5.125C19.75 4.26172 20.4609 3.5 21.375 3.5C22.2383 3.5 23 4.26172 23 5.125V6.75H25.4375C26.7578 6.75 27.875 7.86719 27.875 9.1875V13.25H5.125V9.1875C5.125 7.86719 6.19141 6.75 7.5625 6.75H10V5.125C10 4.26172 10.7109 3.5 11.625 3.5C12.4883 3.5 13.25 4.26172 13.25 5.125V6.75Z" fill="white"/>
<path opacity="0.4" d="M5.125 13.25H27.875V27.0625C27.875 28.4336 26.7578 29.5 25.4375 29.5H7.5625C6.19141 29.5 5.125 28.4336 5.125 27.0625V13.25Z" fill="white"/>
</svg>
