<svg width="33" height="33" viewBox="0 0 33 33" fill="none" xmlns="http://www.w3.org/2000/svg">
<path d="M16.5 8.875C17.1602 8.875 17.7188 9.43359 17.7188 10.0938V14.7656L20.6641 12.7344C21.2227 12.3789 21.9844 12.5312 22.3398 13.0898C22.7461 13.6484 22.5938 14.4102 22.0352 14.7656L17.1602 18.0156C16.7539 18.2695 16.2969 18.3203 15.8906 18.1172C15.4844 17.8633 15.2812 17.457 15.2812 17V10.0938C15.2812 9.43359 15.7891 8.875 16.5 8.875Z" fill="white"/>
<path opacity="0.4" d="M3.5 17C3.5 9.83984 9.28906 4 16.5 4C23.6602 4 29.5 9.83984 29.5 17C29.5 24.2109 23.6602 30 16.5 30C9.28906 30 3.5 24.2109 3.5 17ZM17.7188 10.0938C17.7188 9.43359 17.1602 8.875 16.5 8.875C15.7891 8.875 15.2812 9.43359 15.2812 10.0938V17C15.2812 17.457 15.4844 17.8633 15.8906 18.1172C16.2969 18.3203 16.7539 18.2695 17.1602 18.0156L22.0352 14.7656C22.5938 14.4102 22.7461 13.6484 22.3398 13.0898C21.9844 12.5312 21.2227 12.3789 20.6641 12.7344L17.7188 14.7656V10.0938Z" fill="white"/>
</svg>
