<svg width="33" height="34" viewBox="0 0 33 34" fill="none" xmlns="http://www.w3.org/2000/svg">
<path d="M18.9375 14C18.9375 15.3711 17.8203 16.4375 16.5 16.4375C15.1289 16.4375 14.0625 15.3711 14.0625 14C14.0625 12.6797 15.1289 11.5625 16.5 11.5625C17.8203 11.5625 18.9375 12.6797 18.9375 14Z" fill="white"/>
<path opacity="0.4" d="M15.2812 29.6406C12.6406 26.3398 6.75 18.4688 6.75 14C6.75 8.61719 11.0664 4.25 16.5 4.25C21.8828 4.25 26.25 8.61719 26.25 14C26.25 18.4688 20.3086 26.3398 17.668 29.6406C17.0586 30.4023 15.8906 30.4023 15.2812 29.6406ZM16.5 18.0625C18.7344 18.0625 20.5625 16.2852 20.5625 14C20.5625 11.7656 18.7344 9.9375 16.5 9.9375C14.2148 9.9375 12.4375 11.7656 12.4375 14C12.4375 16.2852 14.2148 18.0625 16.5 18.0625Z" fill="white"/>
</svg>
